<svg width="7" height="10" viewBox="0 0 7 10" fill="none" xmlns="http://www.w3.org/2000/svg">
<path d="M3.5 0C1.57011 0 0 1.55933 0 3.47595C0 5.88495 3.50344 10 3.50344 10C3.50344 10 7 5.76648 7 3.47595C7 1.55933 5.42995 0 3.5 0ZM4.55602 4.49371C4.26484 4.78284 3.88245 4.92743 3.5 4.92743C3.11761 4.92743 2.7351 4.78284 2.44404 4.49371C1.86173 3.91547 1.86173 2.97455 2.44404 2.39624C2.72601 2.11609 3.10108 1.96179 3.5 1.96179C3.89892 1.96179 4.27393 2.11615 4.55602 2.39624C5.13833 2.97455 5.13833 3.91547 4.55602 4.49371Z" fill="white"/>
<path d="M3.5 0.499023C5.1572 0.499024 6.4998 1.83823 6.5 3.47559C6.5 3.93948 6.31797 4.55531 5.99902 5.25488C5.6854 5.9427 5.2626 6.66334 4.83301 7.32422C4.40428 7.98373 3.97428 8.57475 3.65137 9.00098C3.59762 9.07192 3.54527 9.13699 3.49805 9.19824C3.45257 9.14066 3.40203 9.07999 3.35059 9.01367C3.02753 8.59719 2.59785 8.01746 2.16895 7.36621C1.73909 6.71351 1.31567 5.9977 1.00195 5.30566C0.683842 4.60392 0.499023 3.97176 0.499023 3.47559C0.499224 1.83824 1.84286 0.499023 3.5 0.499023ZM3.5 1.46191C2.96972 1.46191 2.46774 1.66847 2.0918 2.04199C1.31302 2.81565 1.31283 4.0751 2.0918 4.84863V4.84766C2.48087 5.23414 2.9921 5.42676 3.5 5.42676C4.00797 5.42676 4.51908 5.23494 4.9082 4.84863C5.68718 4.07509 5.68702 2.81565 4.9082 2.04199C4.53225 1.6687 4.03037 1.46191 3.5 1.46191Z" stroke="#DC56C5" stroke-opacity="0.3" stroke-width="0.999023"/>
</svg>
