<svg xmlns="http://www.w3.org/2000/svg" width="32" height="32" fill="none"><path fill="#fff" d="M0 .038h14.316v8.083H5.14v4.04h7.624v7.67H5.139v4.087h9.177V32H0zM25.392 0q1.864 0 2.965.918c.844.67 1.552 1.717 2.043 3.018.49 1.302.741 2.804.725 4.33.005 1.471-.25 2.914-.735 4.156-.492 1.274-1.184 2.312-2.005 3.008 1.02.584 1.912 1.637 2.57 3.03.683 1.379 1.052 3.098 1.045 4.868.007 1.547-.252 3.066-.748 4.386-.486 1.31-1.172 2.394-1.991 3.146-.435.38-.9.658-1.384.826q-.762.276-2.033.276h-8.697V0z"/></svg>